# xmcd
#
# Track frame offsets: 
#        150
#        5715
#        17930
#        23347
#        43947
#        63167
#        66457
#        79412
#        93382
#        105785
#        112702
#        126652
#        132117
#        143797
#        156852
#        169534
#        173225
#        181495
#        190940
#        203050
#        217402
#        226087
#        241812
#        253255
#        265860
#        268580
#        282335
#        298062
#        313060
#        324840
#        338347
#
# Disc length: 4651 seconds
#
# Revision: 0
# Processed by: cddbd v1.5.2PL0 Copyright (c) Steve Scherf et al.
# Submitted via: ExactAudioCopy v0.95b4
#
DISCID=c012291f
DTITLE=Meade Lux  Lewis - Alternate Takes, Live Performances, Soundies
DTITLE=Various Artist - 1939 to Late 1940s
DYEAR=1900
DGENRE=Blues
TTITLE0=Introduction
TTITLE1=Honky Tonk Train Blues
TTITLE2=Introduction
TTITLE3=Roll 'Em
TTITLE4=Profoundly Blue No. 2
TTITLE5=Introduction
TTITLE6=Yancey Special
TTITLE7=Spirit of Boogie Woogie
TTITLE8=Honky Tonk Train Blues
TTITLE9=V-Disc Stomp (Part One)
TTITLE10=V-Disc Stomp (Part Two)
TTITLE11=Untitled Phrases
TTITLE12=Roll 'Em
TTITLE13=Boogie Woogie
TTITLE14=Low Down Dog
TTITLE15=Introduction
TTITLE16=Six Wheel Chaser
TTITLE17=Boogie Tital
TTITLE18=Lux's Boogie (piece in G)
TTITLE19=Medium Boogie
TTITLE20=Fast Boogie
TTITLE21=Slow Boogie
TTITLE22=Honky Tonk Train Blues
TTITLE23=Be Ba Ba Le Ba Boogie
TTITLE24=Untitled Fragment
TTITLE25=Honky Tonk Train Blues
TTITLE26=Whistlin' Blues
TTITLE27=Squeeze Me
TTITLE28=Cow Cow Blues
TTITLE29=Blues
TTITLE30=Six Wheel Chaser
EXTD=
EXTT0=
EXTT1=
EXTT2=
EXTT3=
EXTT4=
EXTT5=
EXTT6=
EXTT7=
EXTT8=
EXTT9=
EXTT10=
EXTT11=
EXTT12=
EXTT13=
EXTT14=
EXTT15=
EXTT16=
EXTT17=
EXTT18=
EXTT19=
EXTT20=
EXTT21=
EXTT22=
EXTT23=
EXTT24=
EXTT25=
EXTT26=
EXTT27=
EXTT28=
EXTT29=
EXTT30=
PLAYORDER=
